<?xml version="1.0" encoding="UTF-8"?>
<svg viewbox="0 0 512 512" version="1.0" xmlns="http://www.w3.org/2000/svg">
 <g transform="matrix(.52762 0 0 .52762 .37142 0)">
  <rect x=".78626" width="976.86" height="976.86" fill="#d00"/>
  <ellipse cx="487.27" cy="491.5" rx="303.29" ry="298.64" fill="#fff"/>
  <g transform="matrix(1.6375 0 0 1.8135 203.32 27.669)">
   <g transform="translate(-15.155 -17.54)">
    <g fill-rule="evenodd">
     <path d="m188.99 375.57c21.988-33.285 42.04-52.328 64.028-85.613-5.0225-20.742-25.815-9.1105-63.245-268.05-42.307 260.9-65 249.58-67.192 266.13 21.49 33.926 44.919 53.608 66.409 87.533z"/>
     <path d="m111.12 308.5c16.741 23.265 47.927 55.497 64.668 78.762-100.77 6.0791-121.5 28.042-155.93 60.503-6.1506-107.58 73.157-107.05 91.262-139.26z"/>
     <path d="m202.8 386.7c19.42-25.248 43.791-55.641 63.21-80.889 32.85 60.947 75.587 79.632 115.53 82.666-31.199 39.761-111.38 35.258-178.74-1.7768z"/>
    </g>
   </g>
  </g>
 </g>
</svg>
